<?xml version="1.0" encoding="UTF-8"?>
<!DOCTYPE svg PUBLIC "-//W3C//DTD SVG 1.1//EN" "http://www.w3.org/Graphics/SVG/1.1/DTD/svg11.dtd">
<!-- Creator: CorelDRAW X7 -->
<svg xmlns="http://www.w3.org/2000/svg" xml:space="preserve" width="210mm" height="297mm" version="1.1" style="shape-rendering:geometricPrecision; text-rendering:geometricPrecision; image-rendering:optimizeQuality; fill-rule:evenodd; clip-rule:evenodd"
viewBox="0 0 21000 29700"
 xmlns:xlink="http://www.w3.org/1999/xlink">
 <defs>
  <style type="text/css">
   <![CDATA[
    .fil0 {fill:#FEFEFE}
   ]]>
  </style>
 </defs>
 <g id="Camada_x0020_1">
  <metadata id="CorelCorpID_0Corel-Layer"/>
  <path class="fil0" d="M11991 9863l0 2417 3393 0 0 3392 -3393 0 0 8843 -3547 0 0 -8843 -2931 0 0 -3392 2931 0c0,-2021 -257,-4319 1117,-5771 52,-55 79,-92 122,-136 7,-8 18,-19 25,-26l134 -123c1449,-1314 3596,-1039 5645,-1039l0 3188c-1718,0 -3496,-323 -3496,1490zm-14651 4576c0,1957 120,3042 751,4852 306,879 586,1382 1014,2173 99,184 191,306 293,478 422,706 1221,1663 1784,2226 534,533 1094,992 1709,1426 773,545 1145,760 2005,1183 1217,600 3330,1233 5141,1233l139 0c1404,-1 2100,-19 3543,-379 442,-111 809,-228 1222,-372 1686,-588 2721,-1315 4041,-2333 2637,-2032 4678,-6153 4678,-9613 0,-2374 -280,-4084 -1216,-6033 -1423,-2965 -3434,-4889 -6340,-6357 -1390,-701 -3565,-1233 -5141,-1233 -1982,0 -3063,109 -4904,751 -367,128 -796,297 -1129,465l-1522 842c-2159,1290 -3732,3311 -4852,5532 -705,1398 -1216,3577 -1216,5159z"/>
 </g>
</svg>
