<?xml version="1.0" encoding="UTF-8"?>
<!DOCTYPE svg PUBLIC "-//W3C//DTD SVG 1.1//EN" "http://www.w3.org/Graphics/SVG/1.1/DTD/svg11.dtd">
<!-- Creator: CorelDRAW X7 -->
<svg xmlns="http://www.w3.org/2000/svg" xml:space="preserve" width="297mm" height="210mm" version="1.1" style="shape-rendering:geometricPrecision; text-rendering:geometricPrecision; image-rendering:optimizeQuality; fill-rule:evenodd; clip-rule:evenodd"
viewBox="0 0 29700 21000"
 xmlns:xlink="http://www.w3.org/1999/xlink">
 <defs>
  <style type="text/css">
   <![CDATA[
    .fil0 {fill:#FEFEFE}
   ]]>
  </style>
 </defs>
 <g id="Camada_x0020_1">
  <metadata id="CorelCorpID_0Corel-Layer"/>
  <g id="_423770088">
   <path class="fil0" d="M147 6182c-449,-217 -2057,-1112 -2502,-1030l-47 103c-9,31 -17,56 -23,75 -2,12 -4,25 -6,40l-7 14546c0,397 64,483 246,685 631,701 843,941 1788,1006 1168,80 2307,56 3437,79 2460,51 4941,27 7405,27l14809 0c1228,0 2468,-7 3669,-63 1439,-68 2190,21 2788,-885 454,-688 415,-440 414,-1454l0 -12942c0,-1215 218,-1377 -509,-1185 -931,247 -11386,5799 -13482,6875 -1137,584 -1651,1072 -2686,1066 -409,-2 -1534,51 -1853,-26l-13441 -6917z"/>
   <path class="fil0" d="M4365 4572c1165,576 2356,1241 3474,1862 1136,631 2358,1247 3510,1829 1306,660 2498,1476 3842,1325 1011,-114 2858,-1167 3701,-1631 1134,-624 2311,-1180 3461,-1811 1144,-629 2312,-1275 3474,-1864 1176,-596 2264,-1204 3425,-1844 898,-494 2899,-1345 2843,-2464 -41,-801 -1182,-627 -1854,-641l-7996 -51 -15676 28c-952,6 -8096,-48 -8815,314 -316,159 -212,708 -33,983 567,876 2105,1488 3168,2106 587,341 1154,614 1741,927 591,315 1138,636 1735,932z"/>
  </g>
 </g>
</svg>
