<?xml version="1.0" encoding="UTF-8"?>
<!DOCTYPE svg PUBLIC "-//W3C//DTD SVG 1.1//EN" "http://www.w3.org/Graphics/SVG/1.1/DTD/svg11.dtd">
<!-- Creator: CorelDRAW X7 -->
<svg xmlns="http://www.w3.org/2000/svg" xml:space="preserve" width="210mm" height="297mm" version="1.1" style="shape-rendering:geometricPrecision; text-rendering:geometricPrecision; image-rendering:optimizeQuality; fill-rule:evenodd; clip-rule:evenodd"
viewBox="0 0 21000 29700"
 xmlns:xlink="http://www.w3.org/1999/xlink">
 <defs>
  <style type="text/css">
   <![CDATA[
    .fil0 {fill:#FEFEFE}
   ]]>
  </style>
 </defs>
 <g id="Camada_x0020_1">
  <metadata id="CorelCorpID_0Corel-Layer"/>
  <g id="_431382096">
   <path class="fil0" d="M41 20887l0 -12427c0,-1289 645,-2515 1488,-3357 843,-843 2068,-1488 3357,-1488l12428 0c1288,0 2514,645 3357,1488 842,842 1487,2068 1487,3357l0 12427c0,1289 -645,2515 -1487,3357 -843,843 -2069,1488 -3357,1488l-12428 0c-2496,0 -4845,-2348 -4845,-4845zm-2422 -12691l0 12955c0,1832 933,3591 2172,4831 150,150 268,280 421,422 1003,933 3022,1750 4411,1750l12954 0c1832,0 3592,-932 4831,-2172 1238,-1237 2173,-3003 2173,-4831l0 -12955c0,-1265 -622,-2887 -1339,-3875 -497,-684 -1081,-1264 -1760,-1767 -971,-722 -2637,-1361 -3905,-1361l-12954 0c-1068,0 -2562,506 -3329,989 -987,624 -1615,1168 -2314,2109 -722,972 -1361,2638 -1361,3905z"/>
   <path class="fil0" d="M6571 14726c0,-2552 2029,-4581 4582,-4581 2406,0 4476,2034 4476,4581 0,2406 -2034,4476 -4582,4476 -2401,0 -4476,-2075 -4476,-4476zm-2422 -421c0,1310 66,2188 649,3353 175,350 377,734 599,1034 126,170 229,322 371,471 586,613 520,616 1284,1191 892,671 2435,1271 3679,1271 1310,0 2189,-67 3354,-649 726,-364 1385,-797 1953,-1365 159,-159 218,-265 367,-422 893,-936 1646,-2769 1646,-4147 0,-1310 -67,-2188 -649,-3353 -363,-727 -796,-1385 -1364,-1953l-890 -743c-295,-222 -674,-426 -1029,-604 -2155,-1083 -5114,-843 -7037,581l-920 766c-159,160 -218,266 -367,422 -385,403 -724,988 -979,1496 -326,648 -667,1708 -667,2651z"/>
   <path class="fil0" d="M16576 7249c0,397 -22,644 167,991 202,368 451,669 854,831 718,289 1377,186 1938,-286 1108,-933 542,-3116 -1168,-3116 -944,0 -1791,782 -1791,1580z"/>
  </g>
 </g>
</svg>
