<?xml version="1.0" encoding="UTF-8"?>
<!DOCTYPE svg PUBLIC "-//W3C//DTD SVG 1.1//EN" "http://www.w3.org/Graphics/SVG/1.1/DTD/svg11.dtd">
<!-- Creator: CorelDRAW X7 -->
<svg xmlns="http://www.w3.org/2000/svg" xml:space="preserve" width="210mm" height="297mm" version="1.1" style="shape-rendering:geometricPrecision; text-rendering:geometricPrecision; image-rendering:optimizeQuality; fill-rule:evenodd; clip-rule:evenodd"
viewBox="0 0 21000 29700"
 xmlns:xlink="http://www.w3.org/1999/xlink">
 <defs>
  <style type="text/css">
   <![CDATA[
    .fil0 {fill:#FEFEFE}
   ]]>
  </style>
 </defs>
 <g id="Camada_x0020_1">
  <metadata id="CorelCorpID_0Corel-Layer"/>
  <path class="fil0" d="M2903 12325l3323 11 4 9918 -3303 43 -24 -9972zm8717 1046c20,-21 46,-48 65,-69 2005,-2069 4733,-1283 5778,432 997,1637 812,6258 692,8550l-3291 10c-286,-3674 865,-7718 -1832,-7554 -2515,154 -1437,3924 -1696,7554l-3296 2 6 -9965 3313 -4 -15 1333 276 -289zm-7527 -5770c2416,-640 3236,2770 1049,3320 -2509,631 -3466,-2680 -1049,-3320zm-8203 6033l0 2432c475,1163 276,5163 4257,9137 3975,3966 7822,3720 9137,4257l2432 0c651,-266 1936,-313 2724,-539 4113,-1176 7276,-3835 9151,-7605 1432,-2878 1076,-4165 1519,-5250l0 -2432c-450,-1102 -69,-2304 -1520,-5250 -749,-1521 -1796,-2947 -2737,-3887 -4007,-4000 -7954,-3774 -9137,-4257l-2432 0c-727,297 -1959,328 -2815,578 -4960,1445 -8611,5113 -10041,10091 -227,790 -271,2072 -538,2725z"/>
 </g>
</svg>
