<?xml version="1.0" encoding="UTF-8"?>
<!DOCTYPE svg PUBLIC "-//W3C//DTD SVG 1.1//EN" "http://www.w3.org/Graphics/SVG/1.1/DTD/svg11.dtd">
<!-- Creator: CorelDRAW X7 -->
<svg xmlns="http://www.w3.org/2000/svg" xml:space="preserve" width="210mm" height="297mm" version="1.1" style="shape-rendering:geometricPrecision; text-rendering:geometricPrecision; image-rendering:optimizeQuality; fill-rule:evenodd; clip-rule:evenodd"
viewBox="0 0 21000 29700"
 xmlns:xlink="http://www.w3.org/1999/xlink">
 <defs>
  <style type="text/css">
   <![CDATA[
    .fil0 {fill:#FEFEFE}
   ]]>
  </style>
 </defs>
 <g id="Camada_x0020_1">
  <metadata id="CorelCorpID_0Corel-Layer"/>
  <g id="_427772608">
   <path class="fil0" d="M11025 26859c-1078,0 -1630,21 -2721,-199 -569,-114 -1106,-251 -1615,-420 -1022,-339 -1305,-539 -2106,-945 -857,-434 -280,-500 -1801,-83l-2861 748c-183,46 -410,131 -577,145 38,-80 68,-243 94,-332 36,-120 66,-251 99,-361l969 -3527c36,-134 72,-211 8,-328l-179 -282c-325,-502 -711,-1229 -930,-1761 -302,-731 -360,-920 -575,-1657l-246 -1132c-482,-2897 91,-5674 1483,-8108 87,-152 176,-285 275,-447 103,-169 201,-290 308,-447l639 -837c71,-83 95,-98 169,-192 62,-81 105,-118 174,-187l361 -394c515,-471 1043,-932 1616,-1337 302,-213 565,-378 900,-576 814,-481 1210,-609 2021,-933 338,-135 746,-243 1135,-341 2612,-657 5672,-375 7986,768 1077,533 1535,786 2514,1555 83,66 133,113 215,179l1491 1495c1248,1588 2004,2909 2508,4973 368,1511 398,2832 229,4365 -83,748 -251,1399 -464,2096 -473,1548 -1212,2835 -2216,4083 -73,90 -84,111 -167,195l-528 587c-113,142 -241,214 -374,348 -680,687 -1719,1398 -2573,1856 -842,453 -1716,817 -2655,1053 -775,195 -1775,380 -2606,380zm-15225 2757c174,-4 763,-182 977,-237l5776 -1509c151,-42 315,-87 492,-131 518,-128 427,-216 853,46 542,332 2183,915 2796,1076 2230,584 4770,734 7088,164 2017,-496 3332,-1063 5026,-2192l777 -569c91,-73 169,-120 258,-201 603,-539 779,-654 1396,-1295 316,-329 988,-1174 1224,-1499 305,-422 793,-1178 1031,-1660 55,-112 105,-195 163,-296 133,-232 581,-1316 678,-1586 485,-1359 865,-3005 865,-4549 0,-2215 -149,-3358 -824,-5377 -68,-204 -156,-435 -248,-639 -50,-113 -74,-186 -123,-303 -198,-475 -386,-782 -588,-1184 -63,-125 -94,-181 -163,-296 -118,-196 -211,-359 -338,-548 -67,-100 -98,-166 -167,-259 -73,-100 -117,-168 -187,-273 -123,-186 -246,-336 -376,-510 -302,-404 -612,-703 -811,-961 -138,-178 -276,-297 -432,-453l-1391 -1235c-173,-129 -326,-253 -508,-378 -1048,-722 -2277,-1429 -3486,-1829 -2254,-746 -3146,-849 -5583,-849 -741,0 -1922,171 -2618,335 -919,215 -1409,364 -2276,711 -1494,596 -2531,1256 -3754,2217 -149,116 -248,215 -394,328 -226,174 -1006,939 -1130,1102 -62,81 -96,112 -173,188l-333 388c-897,1154 -1247,1631 -1922,2967l-450 1027c-438,1098 -750,2342 -901,3561 -81,649 -172,2171 -84,2819 61,445 64,782 155,1322 263,1563 832,3388 1610,4723 182,314 186,197 10,801 -230,788 -426,1550 -642,2344 -32,118 -1270,4555 -1273,4699z"/>
   <path class="fil0" d="M3117 11273c0,965 166,1678 569,2484 262,524 399,754 724,1244 101,152 191,252 289,400 266,399 558,753 846,1123l616 729c264,300 1038,1084 1330,1328l716 596c757,604 1585,1126 2468,1536 927,430 2580,1060 3598,1060 1061,0 1863,-215 2696,-881 323,-259 607,-508 769,-937 127,-335 517,-1609 66,-1909 -125,-84 -343,-175 -479,-243 -314,-157 -615,-315 -940,-471 -392,-188 -1693,-841 -1980,-841 -170,0 -302,-6 -433,157 -66,82 -127,185 -191,269 -136,182 -271,351 -419,533l-644 766c-280,341 -619,110 -844,18 -936,-380 -1799,-892 -2565,-1536 -80,-67 -102,-73 -179,-150 -117,-116 -208,-174 -328,-295l-607 -640c-102,-116 -196,-245 -292,-365 -266,-334 -980,-1229 -980,-1645 0,-176 462,-632 667,-876 672,-797 646,-989 360,-1660 -251,-585 -890,-2219 -1114,-2660 -88,-173 -177,-315 -353,-401 -148,-72 -1191,-73 -1383,-33 -174,35 -399,153 -512,243 -809,649 -1471,1859 -1471,3057z"/>
  </g>
 </g>
</svg>
